<mxfile host="app.diagrams.net" agent="Mozilla/5.0 (Macintosh; Intel Mac OS X 10_15_7) AppleWebKit/537.36 (KHTML, like Gecko) Chrome/130.0.0.0 Safari/537.36" version="24.8.3">
  <diagram name="第 1 页" id="SZ2b56z7ctwz-dfX-S5R">
    <mxGraphModel dx="1434" dy="761" grid="1" gridSize="10" guides="1" tooltips="1" connect="1" arrows="1" fold="1" page="1" pageScale="1" pageWidth="850" pageHeight="1100" math="0" shadow="0">
      <root>
        <mxCell id="0" />
        <mxCell id="1" parent="0" />
        <mxCell id="CcBjXQ_6Zi5wxkth5K2z-1" value="" style="rounded=0;whiteSpace=wrap;html=1;" vertex="1" parent="1">
          <mxGeometry x="40" y="50" width="1410" height="640" as="geometry" />
        </mxCell>
        <mxCell id="CcBjXQ_6Zi5wxkth5K2z-2" value="" style="endArrow=none;dashed=1;html=1;rounded=0;entryX=0.5;entryY=0;entryDx=0;entryDy=0;exitX=0.5;exitY=1;exitDx=0;exitDy=0;" edge="1" parent="1" source="CcBjXQ_6Zi5wxkth5K2z-1" target="CcBjXQ_6Zi5wxkth5K2z-1">
          <mxGeometry width="50" height="50" relative="1" as="geometry">
            <mxPoint x="775" y="630" as="sourcePoint" />
            <mxPoint x="750" y="340" as="targetPoint" />
          </mxGeometry>
        </mxCell>
        <mxCell id="CcBjXQ_6Zi5wxkth5K2z-3" value="&lt;h1&gt;云资源监控&lt;/h1&gt;" style="text;html=1;strokeColor=none;fillColor=none;spacing=5;spacingTop=-20;whiteSpace=wrap;overflow=hidden;rounded=0;" vertex="1" parent="1">
          <mxGeometry x="790" y="60" width="150" height="50" as="geometry" />
        </mxCell>
        <mxCell id="CcBjXQ_6Zi5wxkth5K2z-4" value="容器集群节点数" style="rounded=0;whiteSpace=wrap;html=1;" vertex="1" parent="1">
          <mxGeometry x="805" y="100" width="120" height="40" as="geometry" />
        </mxCell>
        <mxCell id="CcBjXQ_6Zi5wxkth5K2z-5" value="POD总数&lt;span style=&quot;white-space: pre&quot;&gt; &lt;/span&gt;" style="rounded=0;whiteSpace=wrap;html=1;" vertex="1" parent="1">
          <mxGeometry x="990" y="100" width="120" height="40" as="geometry" />
        </mxCell>
        <mxCell id="CcBjXQ_6Zi5wxkth5K2z-6" value="&lt;h1&gt;业务监控&lt;/h1&gt;" style="text;html=1;strokeColor=none;fillColor=none;spacing=5;spacingTop=-20;whiteSpace=wrap;overflow=hidden;rounded=0;" vertex="1" parent="1">
          <mxGeometry x="40" y="40" width="150" height="50" as="geometry" />
        </mxCell>
        <mxCell id="CcBjXQ_6Zi5wxkth5K2z-7" value="容器集群资源池" style="rounded=0;whiteSpace=wrap;html=1;" vertex="1" parent="1">
          <mxGeometry x="805" y="152.5" width="120" height="40" as="geometry" />
        </mxCell>
        <mxCell id="CcBjXQ_6Zi5wxkth5K2z-8" value="车辆在线数" style="rounded=0;whiteSpace=wrap;html=1;" vertex="1" parent="1">
          <mxGeometry x="65" y="280" width="120" height="40" as="geometry" />
        </mxCell>
        <mxCell id="CcBjXQ_6Zi5wxkth5K2z-9" value="APP/小程序在线用户数" style="rounded=0;whiteSpace=wrap;html=1;" vertex="1" parent="1">
          <mxGeometry x="60" y="130" width="140" height="40" as="geometry" />
        </mxCell>
        <mxCell id="CcBjXQ_6Zi5wxkth5K2z-10" value="产线" style="rounded=0;whiteSpace=wrap;html=1;" vertex="1" parent="1">
          <mxGeometry x="60" y="430" width="120" height="40" as="geometry" />
        </mxCell>
        <mxCell id="CcBjXQ_6Zi5wxkth5K2z-11" value="图拉专线" style="rounded=0;whiteSpace=wrap;html=1;" vertex="1" parent="1">
          <mxGeometry x="790" y="300" width="120" height="40" as="geometry" />
        </mxCell>
        <mxCell id="CcBjXQ_6Zi5wxkth5K2z-12" value="" style="endArrow=none;dashed=1;html=1;dashPattern=1 3;strokeWidth=2;rounded=0;" edge="1" parent="1" target="CcBjXQ_6Zi5wxkth5K2z-1">
          <mxGeometry width="50" height="50" relative="1" as="geometry">
            <mxPoint x="745" y="240" as="sourcePoint" />
            <mxPoint x="750" y="340" as="targetPoint" />
            <Array as="points">
              <mxPoint x="1480" y="240" />
            </Array>
          </mxGeometry>
        </mxCell>
        <mxCell id="CcBjXQ_6Zi5wxkth5K2z-13" value="&lt;h1&gt;网络监控&lt;/h1&gt;" style="text;html=1;strokeColor=none;fillColor=none;spacing=5;spacingTop=-20;whiteSpace=wrap;overflow=hidden;rounded=0;" vertex="1" parent="1">
          <mxGeometry x="790" y="240" width="150" height="50" as="geometry" />
        </mxCell>
        <mxCell id="CcBjXQ_6Zi5wxkth5K2z-14" value="APN" style="rounded=0;whiteSpace=wrap;html=1;" vertex="1" parent="1">
          <mxGeometry x="790" y="360" width="120" height="40" as="geometry" />
        </mxCell>
        <mxCell id="CcBjXQ_6Zi5wxkth5K2z-15" value="SMPP短信通道" style="rounded=0;whiteSpace=wrap;html=1;" vertex="1" parent="1">
          <mxGeometry x="790" y="420" width="120" height="40" as="geometry" />
        </mxCell>
        <mxCell id="CcBjXQ_6Zi5wxkth5K2z-16" value="站点监控" style="rounded=0;whiteSpace=wrap;html=1;" vertex="1" parent="1">
          <mxGeometry x="960" y="300" width="450" height="170" as="geometry" />
        </mxCell>
        <mxCell id="CcBjXQ_6Zi5wxkth5K2z-17" value="" style="rounded=0;whiteSpace=wrap;html=1;" vertex="1" parent="1">
          <mxGeometry x="40" y="520" width="180" height="160" as="geometry" />
        </mxCell>
        <mxCell id="CcBjXQ_6Zi5wxkth5K2z-18" value="&lt;h1&gt;返回码大于500 次数&lt;/h1&gt;" style="text;html=1;strokeColor=none;fillColor=none;spacing=5;spacingTop=-20;whiteSpace=wrap;overflow=hidden;rounded=0;" vertex="1" parent="1">
          <mxGeometry x="50" y="524.5" width="150" height="65.5" as="geometry" />
        </mxCell>
        <mxCell id="CcBjXQ_6Zi5wxkth5K2z-19" value="&lt;h1&gt;延迟大于500ms 次数&lt;/h1&gt;" style="text;html=1;strokeColor=none;fillColor=none;spacing=5;spacingTop=-20;whiteSpace=wrap;overflow=hidden;rounded=0;" vertex="1" parent="1">
          <mxGeometry x="50" y="610" width="150" height="60" as="geometry" />
        </mxCell>
        <mxCell id="CcBjXQ_6Zi5wxkth5K2z-20" value="" style="endArrow=none;dashed=1;html=1;dashPattern=1 3;strokeWidth=2;rounded=0;" edge="1" parent="1">
          <mxGeometry width="50" height="50" relative="1" as="geometry">
            <mxPoint x="40" y="360" as="sourcePoint" />
            <mxPoint x="715" y="365.3061224489795" as="targetPoint" />
            <Array as="points">
              <mxPoint x="745" y="360" />
            </Array>
          </mxGeometry>
        </mxCell>
        <mxCell id="CcBjXQ_6Zi5wxkth5K2z-21" value="&lt;h1&gt;车辆状态&lt;/h1&gt;" style="text;html=1;strokeColor=none;fillColor=none;spacing=5;spacingTop=-20;whiteSpace=wrap;overflow=hidden;rounded=0;" vertex="1" parent="1">
          <mxGeometry x="60" y="210" width="210" height="50" as="geometry" />
        </mxCell>
        <mxCell id="CcBjXQ_6Zi5wxkth5K2z-22" value="APM&lt;span style=&quot;background-color: initial;&quot;&gt;告警列表&lt;/span&gt;" style="rounded=0;whiteSpace=wrap;html=1;" vertex="1" parent="1">
          <mxGeometry x="300" y="520" width="340" height="160" as="geometry" />
        </mxCell>
        <mxCell id="CcBjXQ_6Zi5wxkth5K2z-23" value="云平台告警列表" style="rounded=0;whiteSpace=wrap;html=1;" vertex="1" parent="1">
          <mxGeometry x="1070" y="520" width="340" height="160" as="geometry" />
        </mxCell>
        <mxCell id="CcBjXQ_6Zi5wxkth5K2z-24" value="" style="endArrow=none;dashed=1;html=1;dashPattern=1 3;strokeWidth=2;rounded=0;" edge="1" parent="1">
          <mxGeometry width="50" height="50" relative="1" as="geometry">
            <mxPoint x="740" y="500" as="sourcePoint" />
            <mxPoint x="1415" y="505.3061224489795" as="targetPoint" />
            <Array as="points">
              <mxPoint x="1445" y="500" />
            </Array>
          </mxGeometry>
        </mxCell>
        <mxCell id="CcBjXQ_6Zi5wxkth5K2z-25" value="&lt;h1&gt;P0告警 1条&lt;/h1&gt;" style="text;html=1;strokeColor=none;fillColor=none;spacing=5;spacingTop=-20;whiteSpace=wrap;overflow=hidden;rounded=0;" vertex="1" parent="1">
          <mxGeometry x="760" y="510" width="290" height="40" as="geometry" />
        </mxCell>
        <mxCell id="CcBjXQ_6Zi5wxkth5K2z-26" value="&lt;h1&gt;P1告警 1条&lt;/h1&gt;" style="text;html=1;strokeColor=none;fillColor=none;spacing=5;spacingTop=-20;whiteSpace=wrap;overflow=hidden;rounded=0;" vertex="1" parent="1">
          <mxGeometry x="760" y="555" width="290" height="40" as="geometry" />
        </mxCell>
        <mxCell id="CcBjXQ_6Zi5wxkth5K2z-27" value="&lt;h1&gt;P2告警 1条&lt;/h1&gt;" style="text;html=1;strokeColor=none;fillColor=none;spacing=5;spacingTop=-20;whiteSpace=wrap;overflow=hidden;rounded=0;" vertex="1" parent="1">
          <mxGeometry x="760" y="595" width="290" height="40" as="geometry" />
        </mxCell>
        <mxCell id="CcBjXQ_6Zi5wxkth5K2z-28" value="&lt;h1&gt;P3告警 1条&lt;/h1&gt;" style="text;html=1;strokeColor=none;fillColor=none;spacing=5;spacingTop=-20;whiteSpace=wrap;overflow=hidden;rounded=0;" vertex="1" parent="1">
          <mxGeometry x="760" y="640" width="290" height="40" as="geometry" />
        </mxCell>
        <mxCell id="CcBjXQ_6Zi5wxkth5K2z-29" value="&lt;h1&gt;&lt;br&gt;&lt;/h1&gt;" style="text;html=1;strokeColor=none;fillColor=none;spacing=5;spacingTop=-20;whiteSpace=wrap;overflow=hidden;rounded=0;" vertex="1" parent="1">
          <mxGeometry x="530" y="70" width="200" height="190" as="geometry" />
        </mxCell>
        <mxCell id="CcBjXQ_6Zi5wxkth5K2z-30" value="1001指令上传次数&lt;br&gt;1002&lt;br&gt;3016" style="rounded=0;whiteSpace=wrap;html=1;" vertex="1" parent="1">
          <mxGeometry x="290" y="223.75" width="140" height="122.5" as="geometry" />
        </mxCell>
        <mxCell id="CcBjXQ_6Zi5wxkth5K2z-31" value="验证码登陆次数&lt;br&gt;账户密码次数&lt;br&gt;第三方次数" style="rounded=0;whiteSpace=wrap;html=1;" vertex="1" parent="1">
          <mxGeometry x="570" y="70" width="140" height="122.5" as="geometry" />
        </mxCell>
        <mxCell id="CcBjXQ_6Zi5wxkth5K2z-32" value="远控成功率" style="rounded=0;whiteSpace=wrap;html=1;" vertex="1" parent="1">
          <mxGeometry x="443.5" y="223.75" width="140" height="122.5" as="geometry" />
        </mxCell>
        <mxCell id="CcBjXQ_6Zi5wxkth5K2z-33" value="远控失败原因分类&lt;br&gt;远控失败类型分类" style="rounded=0;whiteSpace=wrap;html=1;" vertex="1" parent="1">
          <mxGeometry x="590" y="223.75" width="140" height="122.5" as="geometry" />
        </mxCell>
        <mxCell id="CcBjXQ_6Zi5wxkth5K2z-34" value="" style="endArrow=none;dashed=1;html=1;dashPattern=1 3;strokeWidth=2;rounded=0;" edge="1" parent="1">
          <mxGeometry width="50" height="50" relative="1" as="geometry">
            <mxPoint x="40" y="210" as="sourcePoint" />
            <mxPoint x="715" y="215.30612244897952" as="targetPoint" />
            <Array as="points">
              <mxPoint x="745" y="210" />
            </Array>
          </mxGeometry>
        </mxCell>
        <mxCell id="CcBjXQ_6Zi5wxkth5K2z-35" value="微服务状态（需要王俊上线GWM-CLOUD-MONITOR）" style="rounded=0;whiteSpace=wrap;html=1;" vertex="1" parent="1">
          <mxGeometry x="990" y="155" width="200" height="37.5" as="geometry" />
        </mxCell>
        <mxCell id="CcBjXQ_6Zi5wxkth5K2z-36" value="MD数据同步&lt;br&gt;&lt;br&gt;PKI调用成功/失败" style="rounded=0;whiteSpace=wrap;html=1;" vertex="1" parent="1">
          <mxGeometry x="590" y="370" width="150" height="120" as="geometry" />
        </mxCell>
        <mxCell id="CcBjXQ_6Zi5wxkth5K2z-37" value="检测成功/失败" style="rounded=0;whiteSpace=wrap;html=1;" vertex="1" parent="1">
          <mxGeometry x="310" y="410" width="170" height="70" as="geometry" />
        </mxCell>
        <mxCell id="CcBjXQ_6Zi5wxkth5K2z-38" value="" style="endArrow=none;dashed=1;html=1;dashPattern=1 3;strokeWidth=2;rounded=0;" edge="1" parent="1">
          <mxGeometry width="50" height="50" relative="1" as="geometry">
            <mxPoint x="40" y="504.69000000000005" as="sourcePoint" />
            <mxPoint x="714.9999999999995" y="509.9961224489796" as="targetPoint" />
            <Array as="points">
              <mxPoint x="745" y="504.69000000000005" />
            </Array>
          </mxGeometry>
        </mxCell>
        <mxCell id="CcBjXQ_6Zi5wxkth5K2z-39" value="短信发送成功/失败次数" style="rounded=0;whiteSpace=wrap;html=1;" vertex="1" parent="1">
          <mxGeometry x="305" y="120" width="180" height="40" as="geometry" />
        </mxCell>
        <mxCell id="CcBjXQ_6Zi5wxkth5K2z-40" value="&lt;h1&gt;APP状态&lt;/h1&gt;" style="text;html=1;strokeColor=none;fillColor=none;spacing=5;spacingTop=-20;whiteSpace=wrap;overflow=hidden;rounded=0;" vertex="1" parent="1">
          <mxGeometry x="50" y="80" width="150" height="50" as="geometry" />
        </mxCell>
        <mxCell id="CcBjXQ_6Zi5wxkth5K2z-41" value="&lt;h1&gt;产线状态&lt;/h1&gt;" style="text;html=1;strokeColor=none;fillColor=none;spacing=5;spacingTop=-20;whiteSpace=wrap;overflow=hidden;rounded=0;" vertex="1" parent="1">
          <mxGeometry x="60" y="360" width="210" height="50" as="geometry" />
        </mxCell>
      </root>
    </mxGraphModel>
  </diagram>
</mxfile>
